  0
SECTION
  2
HEADER
  9
$ANGBASE
  50
0.0
  9
$ANGDIR
  70
1
  9
$MEASUREMENT
  70
0
  0
ENDSEC
  0
SECTION
  2
TABLES
  0
TABLE
  2
LTYPE
  70
4
  0
LTYPE
  5
40F
  2
CONTINUOUS
  70
0
  3
Solid line
  72
65
  73
0
  40
0.0
  0
LTYPE
  5
410
  2
DASHDOT
 70
0
  3
Dash Dot ____ _ ____ _
 72
65
 73
4
 40
2.0
 49
1.25
 49
-0.25
 49
0.25
 49
-0.25
  0
LTYPE
  5
411
  2
DASHED
 70
0
  3
Dashed __ __ __ __ __
 72
65
 73
2
 40
0.75
 49
0.5
 49
-0.25
  0
LTYPE
  5
43B
  2
DOTTED
 70
0
  3
Dotted .  .  .  .
 72
65
 73
2
 40
0.2
 49
0.0
 49
-0.2
  0
ENDTAB
  0
TABLE
  2
STYLE
  70
4
  0
STYLE
  2
KICAD
  70
0
  40
0
  41
1
  42
1
  50
0
  71
0
  3
isocp.shx
  0
STYLE
  2
KICADB
  70
0
  40
0
  41
1
  42
1
  50
0
  71
0
  3
isocp.shx
  0
STYLE
  2
KICADI
  70
0
  40
0
  41
1
  42
1
  50
15
  71
0
  3
isocp.shx
  0
STYLE
  2
KICADBI
  70
0
  40
0
  41
1
  42
1
  50
15
  71
0
  3
isocp.shx
  0
ENDTAB
  0
TABLE
  2
LAYER
  70
1
  0
LAYER
  2
BLACK
  70
0
  62
7
  6
CONTINUOUS
  0
ENDTAB
  0
ENDSEC
  0
SECTION
  2
ENTITIES
0
LINE
8
BLACK
6
CONTINUOUS
10
5.66966
20
-3.59783
11
5.6855
21
-3.59717
0
LINE
8
BLACK
6
CONTINUOUS
10
5.6855
20
-3.59717
11
5.7016
21
-3.59517
0
LINE
8
BLACK
6
CONTINUOUS
10
5.7016
20
-3.59517
11
5.71747
21
-3.59184
0
LINE
8
BLACK
6
CONTINUOUS
10
5.71747
20
-3.59184
11
5.73302
21
-3.58721
0
LINE
8
BLACK
6
CONTINUOUS
10
5.73302
20
-3.58721
11
5.74813
21
-3.58131
0
LINE
8
BLACK
6
CONTINUOUS
10
5.74813
20
-3.58131
11
5.7627
21
-3.57419
0
LINE
8
BLACK
6
CONTINUOUS
10
5.7627
20
-3.57419
11
5.77664
21
-3.56588
0
LINE
8
BLACK
6
CONTINUOUS
10
5.77664
20
-3.56588
11
5.78984
21
-3.55646
0
LINE
8
BLACK
6
CONTINUOUS
10
5.78984
20
-3.55646
11
5.80222
21
-3.54597
0
LINE
8
BLACK
6
CONTINUOUS
10
5.80222
20
-3.54597
11
5.81369
21
-3.5345
0
LINE
8
BLACK
6
CONTINUOUS
10
5.81369
20
-3.5345
11
5.82417
21
-3.52213
0
LINE
8
BLACK
6
CONTINUOUS
10
5.82417
20
-3.52213
11
5.8336
21
-3.50892
0
LINE
8
BLACK
6
CONTINUOUS
10
5.8336
20
-3.50892
11
5.8419
21
-3.49499
0
LINE
8
BLACK
6
CONTINUOUS
10
5.8419
20
-3.49499
11
5.84903
21
-3.48041
0
LINE
8
BLACK
6
CONTINUOUS
10
5.84903
20
-3.48041
11
5.85493
21
-3.4653
0
LINE
8
BLACK
6
CONTINUOUS
10
5.85493
20
-3.4653
11
5.85955
21
-3.44976
0
LINE
8
BLACK
6
CONTINUOUS
10
5.85955
20
-3.44976
11
5.86288
21
-3.43388
0
LINE
8
BLACK
6
CONTINUOUS
10
5.86288
20
-3.43388
11
5.86489
21
-3.41778
0
LINE
8
BLACK
6
CONTINUOUS
10
5.86489
20
-3.41778
11
5.86554
21
-3.40194
0
LINE
8
BLACK
6
CONTINUOUS
10
5.86554
20
-3.40194
11
5.86539
21
-3.40157
0
LINE
8
BLACK
6
CONTINUOUS
10
5.86539
20
-3.40157
11
5.86607
21
-3.38526
0
LINE
8
BLACK
6
CONTINUOUS
10
5.86607
20
-3.38526
11
5.86809
21
-3.36905
0
LINE
8
BLACK
6
CONTINUOUS
10
5.86809
20
-3.36905
11
5.87144
21
-3.35307
0
LINE
8
BLACK
6
CONTINUOUS
10
5.87144
20
-3.35307
11
5.8761
21
-3.33741
0
LINE
8
BLACK
6
CONTINUOUS
10
5.8761
20
-3.33741
11
5.88203
21
-3.3222
0
LINE
8
BLACK
6
CONTINUOUS
10
5.88203
20
-3.3222
11
5.88921
21
-3.30753
0
LINE
8
BLACK
6
CONTINUOUS
10
5.88921
20
-3.30753
11
5.89757
21
-3.2935
0
LINE
8
BLACK
6
CONTINUOUS
10
5.89757
20
-3.2935
11
5.90706
21
-3.28021
0
LINE
8
BLACK
6
CONTINUOUS
10
5.90706
20
-3.28021
11
5.91761
21
-3.26774
0
LINE
8
BLACK
6
CONTINUOUS
10
5.91761
20
-3.26774
11
5.92916
21
-3.2562
0
LINE
8
BLACK
6
CONTINUOUS
10
5.92916
20
-3.2562
11
5.94162
21
-3.24564
0
LINE
8
BLACK
6
CONTINUOUS
10
5.94162
20
-3.24564
11
5.95491
21
-3.23615
0
LINE
8
BLACK
6
CONTINUOUS
10
5.95491
20
-3.23615
11
5.96894
21
-3.22779
0
LINE
8
BLACK
6
CONTINUOUS
10
5.96894
20
-3.22779
11
5.98362
21
-3.22062
0
LINE
8
BLACK
6
CONTINUOUS
10
5.98362
20
-3.22062
11
5.99883
21
-3.21468
0
LINE
8
BLACK
6
CONTINUOUS
10
5.99883
20
-3.21468
11
6.01448
21
-3.21002
0
LINE
8
BLACK
6
CONTINUOUS
10
6.01448
20
-3.21002
11
6.03047
21
-3.20667
0
LINE
8
BLACK
6
CONTINUOUS
10
6.03047
20
-3.20667
11
6.04667
21
-3.20465
0
LINE
8
BLACK
6
CONTINUOUS
10
6.04667
20
-3.20465
11
6.06299
21
-3.20397
0
LINE
8
BLACK
6
CONTINUOUS
10
6.06299
20
-3.20397
11
6.65354
21
-3.20397
0
LINE
8
BLACK
6
CONTINUOUS
10
6.65354
20
-3.20397
11
6.66986
21
-3.20465
0
LINE
8
BLACK
6
CONTINUOUS
10
6.66986
20
-3.20465
11
6.68607
21
-3.20667
0
LINE
8
BLACK
6
CONTINUOUS
10
6.68607
20
-3.20667
11
6.70205
21
-3.21002
0
LINE
8
BLACK
6
CONTINUOUS
10
6.70205
20
-3.21002
11
6.7177
21
-3.21468
0
LINE
8
BLACK
6
CONTINUOUS
10
6.7177
20
-3.21468
11
6.73292
21
-3.22062
0
LINE
8
BLACK
6
CONTINUOUS
10
6.73292
20
-3.22062
11
6.74759
21
-3.22779
0
LINE
8
BLACK
6
CONTINUOUS
10
6.74759
20
-3.22779
11
6.76162
21
-3.23615
0
LINE
8
BLACK
6
CONTINUOUS
10
6.76162
20
-3.23615
11
6.77491
21
-3.24564
0
LINE
8
BLACK
6
CONTINUOUS
10
6.77491
20
-3.24564
11
6.78737
21
-3.2562
0
LINE
8
BLACK
6
CONTINUOUS
10
6.78737
20
-3.2562
11
6.79892
21
-3.26774
0
LINE
8
BLACK
6
CONTINUOUS
10
6.79892
20
-3.26774
11
6.80948
21
-3.28021
0
LINE
8
BLACK
6
CONTINUOUS
10
6.80948
20
-3.28021
11
6.81897
21
-3.2935
0
LINE
8
BLACK
6
CONTINUOUS
10
6.81897
20
-3.2935
11
6.82733
21
-3.30753
0
LINE
8
BLACK
6
CONTINUOUS
10
6.82733
20
-3.30753
11
6.8345
21
-3.3222
0
LINE
8
BLACK
6
CONTINUOUS
10
6.8345
20
-3.3222
11
6.84044
21
-3.33741
0
LINE
8
BLACK
6
CONTINUOUS
10
6.84044
20
-3.33741
11
6.8451
21
-3.35307
0
LINE
8
BLACK
6
CONTINUOUS
10
6.8451
20
-3.35307
11
6.84845
21
-3.36905
0
LINE
8
BLACK
6
CONTINUOUS
10
6.84845
20
-3.36905
11
6.85047
21
-3.38526
0
LINE
8
BLACK
6
CONTINUOUS
10
6.85047
20
-3.38526
11
6.85114
21
-3.40157
0
LINE
8
BLACK
6
CONTINUOUS
10
6.85114
20
-3.40157
11
6.85114
21
-5.76378
0
LINE
8
BLACK
6
CONTINUOUS
10
6.85114
20
-5.76378
11
6.85047
21
-5.7801
0
LINE
8
BLACK
6
CONTINUOUS
10
6.85047
20
-5.7801
11
6.84845
21
-5.7963
0
LINE
8
BLACK
6
CONTINUOUS
10
6.84845
20
-5.7963
11
6.8451
21
-5.81229
0
LINE
8
BLACK
6
CONTINUOUS
10
6.8451
20
-5.81229
11
6.84044
21
-5.82794
0
LINE
8
BLACK
6
CONTINUOUS
10
6.84044
20
-5.82794
11
6.8345
21
-5.84315
0
LINE
8
BLACK
6
CONTINUOUS
10
6.8345
20
-5.84315
11
6.82733
21
-5.85783
0
LINE
8
BLACK
6
CONTINUOUS
10
6.82733
20
-5.85783
11
6.81897
21
-5.87186
0
LINE
8
BLACK
6
CONTINUOUS
10
6.81897
20
-5.87186
11
6.80948
21
-5.88515
0
LINE
8
BLACK
6
CONTINUOUS
10
6.80948
20
-5.88515
11
6.79892
21
-5.89761
0
LINE
8
BLACK
6
CONTINUOUS
10
6.79892
20
-5.89761
11
6.78737
21
-5.90916
0
LINE
8
BLACK
6
CONTINUOUS
10
6.78737
20
-5.90916
11
6.77491
21
-5.91971
0
LINE
8
BLACK
6
CONTINUOUS
10
6.77491
20
-5.91971
11
6.76162
21
-5.9292
0
LINE
8
BLACK
6
CONTINUOUS
10
6.76162
20
-5.9292
11
6.74759
21
-5.93756
0
LINE
8
BLACK
6
CONTINUOUS
10
6.74759
20
-5.93756
11
6.73292
21
-5.94474
0
LINE
8
BLACK
6
CONTINUOUS
10
6.73292
20
-5.94474
11
6.7177
21
-5.95067
0
LINE
8
BLACK
6
CONTINUOUS
10
6.7177
20
-5.95067
11
6.70205
21
-5.95533
0
LINE
8
BLACK
6
CONTINUOUS
10
6.70205
20
-5.95533
11
6.68607
21
-5.95868
0
LINE
8
BLACK
6
CONTINUOUS
10
6.68607
20
-5.95868
11
6.66986
21
-5.9607
0
LINE
8
BLACK
6
CONTINUOUS
10
6.66986
20
-5.9607
11
6.65354
21
-5.96138
0
LINE
8
BLACK
6
CONTINUOUS
10
6.65354
20
-5.96138
11
6.06299
21
-5.96138
0
LINE
8
BLACK
6
CONTINUOUS
10
6.06299
20
-5.96138
11
6.04667
21
-5.9607
0
LINE
8
BLACK
6
CONTINUOUS
10
6.04667
20
-5.9607
11
6.03047
21
-5.95868
0
LINE
8
BLACK
6
CONTINUOUS
10
6.03047
20
-5.95868
11
6.01448
21
-5.95533
0
LINE
8
BLACK
6
CONTINUOUS
10
6.01448
20
-5.95533
11
5.99883
21
-5.95067
0
LINE
8
BLACK
6
CONTINUOUS
10
5.99883
20
-5.95067
11
5.98362
21
-5.94474
0
LINE
8
BLACK
6
CONTINUOUS
10
5.98362
20
-5.94474
11
5.96894
21
-5.93756
0
LINE
8
BLACK
6
CONTINUOUS
10
5.96894
20
-5.93756
11
5.95491
21
-5.9292
0
LINE
8
BLACK
6
CONTINUOUS
10
5.95491
20
-5.9292
11
5.94162
21
-5.91971
0
LINE
8
BLACK
6
CONTINUOUS
10
5.94162
20
-5.91971
11
5.92916
21
-5.90916
0
LINE
8
BLACK
6
CONTINUOUS
10
5.92916
20
-5.90916
11
5.91761
21
-5.89761
0
LINE
8
BLACK
6
CONTINUOUS
10
5.91761
20
-5.89761
11
5.90706
21
-5.88515
0
LINE
8
BLACK
6
CONTINUOUS
10
5.90706
20
-5.88515
11
5.89757
21
-5.87186
0
LINE
8
BLACK
6
CONTINUOUS
10
5.89757
20
-5.87186
11
5.88921
21
-5.85783
0
LINE
8
BLACK
6
CONTINUOUS
10
5.88921
20
-5.85783
11
5.88203
21
-5.84315
0
LINE
8
BLACK
6
CONTINUOUS
10
5.88203
20
-5.84315
11
5.8761
21
-5.82794
0
LINE
8
BLACK
6
CONTINUOUS
10
5.8761
20
-5.82794
11
5.87144
21
-5.81229
0
LINE
8
BLACK
6
CONTINUOUS
10
5.87144
20
-5.81229
11
5.86809
21
-5.7963
0
LINE
8
BLACK
6
CONTINUOUS
10
5.86809
20
-5.7963
11
5.86607
21
-5.7801
0
LINE
8
BLACK
6
CONTINUOUS
10
5.86607
20
-5.7801
11
5.86539
21
-5.76378
0
LINE
8
BLACK
6
CONTINUOUS
10
5.86539
20
-5.76378
11
5.86554
21
-5.76341
0
LINE
8
BLACK
6
CONTINUOUS
10
5.86554
20
-5.76341
11
5.86489
21
-5.74757
0
LINE
8
BLACK
6
CONTINUOUS
10
5.86489
20
-5.74757
11
5.86288
21
-5.73147
0
LINE
8
BLACK
6
CONTINUOUS
10
5.86288
20
-5.73147
11
5.85955
21
-5.7156
0
LINE
8
BLACK
6
CONTINUOUS
10
5.85955
20
-5.7156
11
5.85493
21
-5.70005
0
LINE
8
BLACK
6
CONTINUOUS
10
5.85493
20
-5.70005
11
5.84903
21
-5.68494
0
LINE
8
BLACK
6
CONTINUOUS
10
5.84903
20
-5.68494
11
5.8419
21
-5.67037
0
LINE
8
BLACK
6
CONTINUOUS
10
5.8419
20
-5.67037
11
5.8336
21
-5.65643
0
LINE
8
BLACK
6
CONTINUOUS
10
5.8336
20
-5.65643
11
5.82417
21
-5.64323
0
LINE
8
BLACK
6
CONTINUOUS
10
5.82417
20
-5.64323
11
5.81369
21
-5.63085
0
LINE
8
BLACK
6
CONTINUOUS
10
5.81369
20
-5.63085
11
5.80222
21
-5.61938
0
LINE
8
BLACK
6
CONTINUOUS
10
5.80222
20
-5.61938
11
5.78984
21
-5.6089
0
LINE
8
BLACK
6
CONTINUOUS
10
5.78984
20
-5.6089
11
5.77664
21
-5.59947
0
LINE
8
BLACK
6
CONTINUOUS
10
5.77664
20
-5.59947
11
5.7627
21
-5.59117
0
LINE
8
BLACK
6
CONTINUOUS
10
5.7627
20
-5.59117
11
5.74813
21
-5.58404
0
LINE
8
BLACK
6
CONTINUOUS
10
5.74813
20
-5.58404
11
5.73302
21
-5.57815
0
LINE
8
BLACK
6
CONTINUOUS
10
5.73302
20
-5.57815
11
5.71747
21
-5.57352
0
LINE
8
BLACK
6
CONTINUOUS
10
5.71747
20
-5.57352
11
5.7016
21
-5.57019
0
LINE
8
BLACK
6
CONTINUOUS
10
5.7016
20
-5.57019
11
5.6855
21
-5.56818
0
LINE
8
BLACK
6
CONTINUOUS
10
5.6855
20
-5.56818
11
5.66966
21
-5.56753
0
LINE
8
BLACK
6
CONTINUOUS
10
5.66966
20
-5.56753
11
5.66929
21
-5.56768
0
LINE
8
BLACK
6
CONTINUOUS
10
5.66929
20
-5.56768
11
4.88189
21
-5.56768
0
LINE
8
BLACK
6
CONTINUOUS
10
4.88189
20
-5.56768
11
4.88152
21
-5.56753
0
LINE
8
BLACK
6
CONTINUOUS
10
4.88152
20
-5.56753
11
4.86568
21
-5.56818
0
LINE
8
BLACK
6
CONTINUOUS
10
4.86568
20
-5.56818
11
4.84959
21
-5.57019
0
LINE
8
BLACK
6
CONTINUOUS
10
4.84959
20
-5.57019
11
4.83371
21
-5.57352
0
LINE
8
BLACK
6
CONTINUOUS
10
4.83371
20
-5.57352
11
4.81816
21
-5.57815
0
LINE
8
BLACK
6
CONTINUOUS
10
4.81816
20
-5.57815
11
4.80305
21
-5.58404
0
LINE
8
BLACK
6
CONTINUOUS
10
4.80305
20
-5.58404
11
4.78848
21
-5.59117
0
LINE
8
BLACK
6
CONTINUOUS
10
4.78848
20
-5.59117
11
4.77454
21
-5.59947
0
LINE
8
BLACK
6
CONTINUOUS
10
4.77454
20
-5.59947
11
4.76134
21
-5.6089
0
LINE
8
BLACK
6
CONTINUOUS
10
4.76134
20
-5.6089
11
4.74896
21
-5.61938
0
LINE
8
BLACK
6
CONTINUOUS
10
4.74896
20
-5.61938
11
4.73749
21
-5.63085
0
LINE
8
BLACK
6
CONTINUOUS
10
4.73749
20
-5.63085
11
4.72701
21
-5.64323
0
LINE
8
BLACK
6
CONTINUOUS
10
4.72701
20
-5.64323
11
4.71758
21
-5.65643
0
LINE
8
BLACK
6
CONTINUOUS
10
4.71758
20
-5.65643
11
4.70928
21
-5.67037
0
LINE
8
BLACK
6
CONTINUOUS
10
4.70928
20
-5.67037
11
4.70215
21
-5.68494
0
LINE
8
BLACK
6
CONTINUOUS
10
4.70215
20
-5.68494
11
4.69626
21
-5.70005
0
LINE
8
BLACK
6
CONTINUOUS
10
4.69626
20
-5.70005
11
4.69163
21
-5.7156
0
LINE
8
BLACK
6
CONTINUOUS
10
4.69163
20
-5.7156
11
4.6883
21
-5.73147
0
LINE
8
BLACK
6
CONTINUOUS
10
4.6883
20
-5.73147
11
4.68629
21
-5.74757
0
LINE
8
BLACK
6
CONTINUOUS
10
4.68629
20
-5.74757
11
4.68564
21
-5.76341
0
LINE
8
BLACK
6
CONTINUOUS
10
4.68564
20
-5.76341
11
4.68579
21
-5.76378
0
LINE
8
BLACK
6
CONTINUOUS
10
4.68579
20
-5.76378
11
4.68511
21
-5.7801
0
LINE
8
BLACK
6
CONTINUOUS
10
4.68511
20
-5.7801
11
4.68309
21
-5.7963
0
LINE
8
BLACK
6
CONTINUOUS
10
4.68309
20
-5.7963
11
4.67974
21
-5.81229
0
LINE
8
BLACK
6
CONTINUOUS
10
4.67974
20
-5.81229
11
4.67508
21
-5.82794
0
LINE
8
BLACK
6
CONTINUOUS
10
4.67508
20
-5.82794
11
4.66915
21
-5.84315
0
LINE
8
BLACK
6
CONTINUOUS
10
4.66915
20
-5.84315
11
4.66197
21
-5.85783
0
LINE
8
BLACK
6
CONTINUOUS
10
4.66197
20
-5.85783
11
4.65361
21
-5.87186
0
LINE
8
BLACK
6
CONTINUOUS
10
4.65361
20
-5.87186
11
4.64412
21
-5.88515
0
LINE
8
BLACK
6
CONTINUOUS
10
4.64412
20
-5.88515
11
4.63357
21
-5.89761
0
LINE
8
BLACK
6
CONTINUOUS
10
4.63357
20
-5.89761
11
4.62202
21
-5.90916
0
LINE
8
BLACK
6
CONTINUOUS
10
4.62202
20
-5.90916
11
4.60956
21
-5.91971
0
LINE
8
BLACK
6
CONTINUOUS
10
4.60956
20
-5.91971
11
4.59627
21
-5.9292
0
LINE
8
BLACK
6
CONTINUOUS
10
4.59627
20
-5.9292
11
4.58224
21
-5.93756
0
LINE
8
BLACK
6
CONTINUOUS
10
4.58224
20
-5.93756
11
4.56756
21
-5.94474
0
LINE
8
BLACK
6
CONTINUOUS
10
4.56756
20
-5.94474
11
4.55235
21
-5.95067
0
LINE
8
BLACK
6
CONTINUOUS
10
4.55235
20
-5.95067
11
4.5367
21
-5.95533
0
LINE
8
BLACK
6
CONTINUOUS
10
4.5367
20
-5.95533
11
4.52071
21
-5.95868
0
LINE
8
BLACK
6
CONTINUOUS
10
4.52071
20
-5.95868
11
4.50451
21
-5.9607
0
LINE
8
BLACK
6
CONTINUOUS
10
4.50451
20
-5.9607
11
4.48819
21
-5.96138
0
LINE
8
BLACK
6
CONTINUOUS
10
4.48819
20
-5.96138
11
3.89764
21
-5.96138
0
LINE
8
BLACK
6
CONTINUOUS
10
3.89764
20
-5.96138
11
3.88132
21
-5.9607
0
LINE
8
BLACK
6
CONTINUOUS
10
3.88132
20
-5.9607
11
3.86511
21
-5.95868
0
LINE
8
BLACK
6
CONTINUOUS
10
3.86511
20
-5.95868
11
3.84913
21
-5.95533
0
LINE
8
BLACK
6
CONTINUOUS
10
3.84913
20
-5.95533
11
3.83348
21
-5.95067
0
LINE
8
BLACK
6
CONTINUOUS
10
3.83348
20
-5.95067
11
3.81826
21
-5.94474
0
LINE
8
BLACK
6
CONTINUOUS
10
3.81826
20
-5.94474
11
3.80359
21
-5.93756
0
LINE
8
BLACK
6
CONTINUOUS
10
3.80359
20
-5.93756
11
3.78956
21
-5.9292
0
LINE
8
BLACK
6
CONTINUOUS
10
3.78956
20
-5.9292
11
3.77627
21
-5.91971
0
LINE
8
BLACK
6
CONTINUOUS
10
3.77627
20
-5.91971
11
3.76381
21
-5.90916
0
LINE
8
BLACK
6
CONTINUOUS
10
3.76381
20
-5.90916
11
3.75226
21
-5.89761
0
LINE
8
BLACK
6
CONTINUOUS
10
3.75226
20
-5.89761
11
3.7417
21
-5.88515
0
LINE
8
BLACK
6
CONTINUOUS
10
3.7417
20
-5.88515
11
3.73221
21
-5.87186
0
LINE
8
BLACK
6
CONTINUOUS
10
3.73221
20
-5.87186
11
3.72385
21
-5.85783
0
LINE
8
BLACK
6
CONTINUOUS
10
3.72385
20
-5.85783
11
3.71668
21
-5.84315
0
LINE
8
BLACK
6
CONTINUOUS
10
3.71668
20
-5.84315
11
3.71074
21
-5.82794
0
LINE
8
BLACK
6
CONTINUOUS
10
3.71074
20
-5.82794
11
3.70608
21
-5.81229
0
LINE
8
BLACK
6
CONTINUOUS
10
3.70608
20
-5.81229
11
3.70273
21
-5.7963
0
LINE
8
BLACK
6
CONTINUOUS
10
3.70273
20
-5.7963
11
3.70071
21
-5.7801
0
LINE
8
BLACK
6
CONTINUOUS
10
3.70071
20
-5.7801
11
3.70004
21
-5.76378
0
LINE
8
BLACK
6
CONTINUOUS
10
3.70004
20
-5.76378
11
3.70004
21
-3.40157
0
LINE
8
BLACK
6
CONTINUOUS
10
3.70004
20
-3.40157
11
3.70071
21
-3.38526
0
LINE
8
BLACK
6
CONTINUOUS
10
3.70071
20
-3.38526
11
3.70273
21
-3.36905
0
LINE
8
BLACK
6
CONTINUOUS
10
3.70273
20
-3.36905
11
3.70608
21
-3.35307
0
LINE
8
BLACK
6
CONTINUOUS
10
3.70608
20
-3.35307
11
3.71074
21
-3.33741
0
LINE
8
BLACK
6
CONTINUOUS
10
3.71074
20
-3.33741
11
3.71668
21
-3.3222
0
LINE
8
BLACK
6
CONTINUOUS
10
3.71668
20
-3.3222
11
3.72385
21
-3.30753
0
LINE
8
BLACK
6
CONTINUOUS
10
3.72385
20
-3.30753
11
3.73221
21
-3.2935
0
LINE
8
BLACK
6
CONTINUOUS
10
3.73221
20
-3.2935
11
3.7417
21
-3.28021
0
LINE
8
BLACK
6
CONTINUOUS
10
3.7417
20
-3.28021
11
3.75226
21
-3.26774
0
LINE
8
BLACK
6
CONTINUOUS
10
3.75226
20
-3.26774
11
3.76381
21
-3.2562
0
LINE
8
BLACK
6
CONTINUOUS
10
3.76381
20
-3.2562
11
3.77627
21
-3.24564
0
LINE
8
BLACK
6
CONTINUOUS
10
3.77627
20
-3.24564
11
3.78956
21
-3.23615
0
LINE
8
BLACK
6
CONTINUOUS
10
3.78956
20
-3.23615
11
3.80359
21
-3.22779
0
LINE
8
BLACK
6
CONTINUOUS
10
3.80359
20
-3.22779
11
3.81826
21
-3.22062
0
LINE
8
BLACK
6
CONTINUOUS
10
3.81826
20
-3.22062
11
3.83348
21
-3.21468
0
LINE
8
BLACK
6
CONTINUOUS
10
3.83348
20
-3.21468
11
3.84913
21
-3.21002
0
LINE
8
BLACK
6
CONTINUOUS
10
3.84913
20
-3.21002
11
3.86511
21
-3.20667
0
LINE
8
BLACK
6
CONTINUOUS
10
3.86511
20
-3.20667
11
3.88132
21
-3.20465
0
LINE
8
BLACK
6
CONTINUOUS
10
3.88132
20
-3.20465
11
3.89764
21
-3.20397
0
LINE
8
BLACK
6
CONTINUOUS
10
3.89764
20
-3.20397
11
4.48819
21
-3.20397
0
LINE
8
BLACK
6
CONTINUOUS
10
4.48819
20
-3.20397
11
4.50451
21
-3.20465
0
LINE
8
BLACK
6
CONTINUOUS
10
4.50451
20
-3.20465
11
4.52071
21
-3.20667
0
LINE
8
BLACK
6
CONTINUOUS
10
4.52071
20
-3.20667
11
4.5367
21
-3.21002
0
LINE
8
BLACK
6
CONTINUOUS
10
4.5367
20
-3.21002
11
4.55235
21
-3.21468
0
LINE
8
BLACK
6
CONTINUOUS
10
4.55235
20
-3.21468
11
4.56756
21
-3.22062
0
LINE
8
BLACK
6
CONTINUOUS
10
4.56756
20
-3.22062
11
4.58224
21
-3.22779
0
LINE
8
BLACK
6
CONTINUOUS
10
4.58224
20
-3.22779
11
4.59627
21
-3.23615
0
LINE
8
BLACK
6
CONTINUOUS
10
4.59627
20
-3.23615
11
4.60956
21
-3.24564
0
LINE
8
BLACK
6
CONTINUOUS
10
4.60956
20
-3.24564
11
4.62202
21
-3.2562
0
LINE
8
BLACK
6
CONTINUOUS
10
4.62202
20
-3.2562
11
4.63357
21
-3.26774
0
LINE
8
BLACK
6
CONTINUOUS
10
4.63357
20
-3.26774
11
4.64412
21
-3.28021
0
LINE
8
BLACK
6
CONTINUOUS
10
4.64412
20
-3.28021
11
4.65361
21
-3.2935
0
LINE
8
BLACK
6
CONTINUOUS
10
4.65361
20
-3.2935
11
4.66197
21
-3.30753
0
LINE
8
BLACK
6
CONTINUOUS
10
4.66197
20
-3.30753
11
4.66915
21
-3.3222
0
LINE
8
BLACK
6
CONTINUOUS
10
4.66915
20
-3.3222
11
4.67508
21
-3.33741
0
LINE
8
BLACK
6
CONTINUOUS
10
4.67508
20
-3.33741
11
4.67974
21
-3.35307
0
LINE
8
BLACK
6
CONTINUOUS
10
4.67974
20
-3.35307
11
4.68309
21
-3.36905
0
LINE
8
BLACK
6
CONTINUOUS
10
4.68309
20
-3.36905
11
4.68511
21
-3.38526
0
LINE
8
BLACK
6
CONTINUOUS
10
4.68511
20
-3.38526
11
4.68579
21
-3.40157
0
LINE
8
BLACK
6
CONTINUOUS
10
4.68579
20
-3.40157
11
4.68564
21
-3.40194
0
LINE
8
BLACK
6
CONTINUOUS
10
4.68564
20
-3.40194
11
4.68629
21
-3.41778
0
LINE
8
BLACK
6
CONTINUOUS
10
4.68629
20
-3.41778
11
4.6883
21
-3.43388
0
LINE
8
BLACK
6
CONTINUOUS
10
4.6883
20
-3.43388
11
4.69163
21
-3.44976
0
LINE
8
BLACK
6
CONTINUOUS
10
4.69163
20
-3.44976
11
4.69626
21
-3.4653
0
LINE
8
BLACK
6
CONTINUOUS
10
4.69626
20
-3.4653
11
4.70215
21
-3.48041
0
LINE
8
BLACK
6
CONTINUOUS
10
4.70215
20
-3.48041
11
4.70928
21
-3.49499
0
LINE
8
BLACK
6
CONTINUOUS
10
4.70928
20
-3.49499
11
4.71758
21
-3.50892
0
LINE
8
BLACK
6
CONTINUOUS
10
4.71758
20
-3.50892
11
4.72701
21
-3.52213
0
LINE
8
BLACK
6
CONTINUOUS
10
4.72701
20
-3.52213
11
4.73749
21
-3.5345
0
LINE
8
BLACK
6
CONTINUOUS
10
4.73749
20
-3.5345
11
4.74896
21
-3.54597
0
LINE
8
BLACK
6
CONTINUOUS
10
4.74896
20
-3.54597
11
4.76134
21
-3.55646
0
LINE
8
BLACK
6
CONTINUOUS
10
4.76134
20
-3.55646
11
4.77454
21
-3.56588
0
LINE
8
BLACK
6
CONTINUOUS
10
4.77454
20
-3.56588
11
4.78848
21
-3.57419
0
LINE
8
BLACK
6
CONTINUOUS
10
4.78848
20
-3.57419
11
4.80305
21
-3.58131
0
LINE
8
BLACK
6
CONTINUOUS
10
4.80305
20
-3.58131
11
4.81816
21
-3.58721
0
LINE
8
BLACK
6
CONTINUOUS
10
4.81816
20
-3.58721
11
4.83371
21
-3.59184
0
LINE
8
BLACK
6
CONTINUOUS
10
4.83371
20
-3.59184
11
4.84959
21
-3.59517
0
LINE
8
BLACK
6
CONTINUOUS
10
4.84959
20
-3.59517
11
4.86568
21
-3.59717
0
LINE
8
BLACK
6
CONTINUOUS
10
4.86568
20
-3.59717
11
4.88152
21
-3.59783
0
LINE
8
BLACK
6
CONTINUOUS
10
4.88152
20
-3.59783
11
4.88189
21
-3.59768
0
LINE
8
BLACK
6
CONTINUOUS
10
4.88189
20
-3.59768
11
5.66929
21
-3.59768
0
LINE
8
BLACK
6
CONTINUOUS
10
5.66929
20
-3.59768
11
5.66966
21
-3.59783
0
LINE
8
BLACK
6
CONTINUOUS
10
6.06262
20
-3.20532
11
6.04678
21
-3.20598
0
LINE
8
BLACK
6
CONTINUOUS
10
6.04678
20
-3.20598
11
6.03069
21
-3.20798
0
LINE
8
BLACK
6
CONTINUOUS
10
6.03069
20
-3.20798
11
6.01481
21
-3.21131
0
LINE
8
BLACK
6
CONTINUOUS
10
6.01481
20
-3.21131
11
5.99926
21
-3.21594
0
LINE
8
BLACK
6
CONTINUOUS
10
5.99926
20
-3.21594
11
5.98415
21
-3.22184
0
LINE
8
BLACK
6
CONTINUOUS
10
5.98415
20
-3.22184
11
5.96958
21
-3.22896
0
LINE
8
BLACK
6
CONTINUOUS
10
5.96958
20
-3.22896
11
5.95564
21
-3.23727
0
LINE
8
BLACK
6
CONTINUOUS
10
5.95564
20
-3.23727
11
5.94244
21
-3.24669
0
LINE
8
BLACK
6
CONTINUOUS
10
5.94244
20
-3.24669
11
5.93006
21
-3.25718
0
LINE
8
BLACK
6
CONTINUOUS
10
5.93006
20
-3.25718
11
5.91859
21
-3.26865
0
LINE
8
BLACK
6
CONTINUOUS
10
5.91859
20
-3.26865
11
5.90811
21
-3.28102
0
LINE
8
BLACK
6
CONTINUOUS
10
5.90811
20
-3.28102
11
5.89868
21
-3.29423
0
LINE
8
BLACK
6
CONTINUOUS
10
5.89868
20
-3.29423
11
5.89038
21
-3.30816
0
LINE
8
BLACK
6
CONTINUOUS
10
5.89038
20
-3.30816
11
5.88326
21
-3.32273
0
LINE
8
BLACK
6
CONTINUOUS
10
5.88326
20
-3.32273
11
5.87736
21
-3.33785
0
LINE
8
BLACK
6
CONTINUOUS
10
5.87736
20
-3.33785
11
5.87273
21
-3.35339
0
LINE
8
BLACK
6
CONTINUOUS
10
5.87273
20
-3.35339
11
5.8694
21
-3.36927
0
LINE
8
BLACK
6
CONTINUOUS
10
5.8694
20
-3.36927
11
5.86739
21
-3.38537
0
LINE
8
BLACK
6
CONTINUOUS
10
5.86739
20
-3.38537
11
5.86674
21
-3.40121
0
LINE
8
BLACK
6
CONTINUOUS
10
5.86674
20
-3.40121
11
5.86689
21
-3.40157
0
LINE
8
BLACK
6
CONTINUOUS
10
5.86689
20
-3.40157
11
5.86622
21
-3.41789
0
LINE
8
BLACK
6
CONTINUOUS
10
5.86622
20
-3.41789
11
5.8642
21
-3.4341
0
LINE
8
BLACK
6
CONTINUOUS
10
5.8642
20
-3.4341
11
5.86085
21
-3.45008
0
LINE
8
BLACK
6
CONTINUOUS
10
5.86085
20
-3.45008
11
5.85619
21
-3.46574
0
LINE
8
BLACK
6
CONTINUOUS
10
5.85619
20
-3.46574
11
5.85025
21
-3.48095
0
LINE
8
BLACK
6
CONTINUOUS
10
5.85025
20
-3.48095
11
5.84308
21
-3.49562
0
LINE
8
BLACK
6
CONTINUOUS
10
5.84308
20
-3.49562
11
5.83472
21
-3.50965
0
LINE
8
BLACK
6
CONTINUOUS
10
5.83472
20
-3.50965
11
5.82523
21
-3.52294
0
LINE
8
BLACK
6
CONTINUOUS
10
5.82523
20
-3.52294
11
5.81467
21
-3.53541
0
LINE
8
BLACK
6
CONTINUOUS
10
5.81467
20
-3.53541
11
5.80312
21
-3.54695
0
LINE
8
BLACK
6
CONTINUOUS
10
5.80312
20
-3.54695
11
5.79066
21
-3.55751
0
LINE
8
BLACK
6
CONTINUOUS
10
5.79066
20
-3.55751
11
5.77737
21
-3.567
0
LINE
8
BLACK
6
CONTINUOUS
10
5.77737
20
-3.567
11
5.76334
21
-3.57536
0
LINE
8
BLACK
6
CONTINUOUS
10
5.76334
20
-3.57536
11
5.74867
21
-3.58253
0
LINE
8
BLACK
6
CONTINUOUS
10
5.74867
20
-3.58253
11
5.73345
21
-3.58847
0
LINE
8
BLACK
6
CONTINUOUS
10
5.73345
20
-3.58847
11
5.7178
21
-3.59313
0
LINE
8
BLACK
6
CONTINUOUS
10
5.7178
20
-3.59313
11
5.70182
21
-3.59648
0
LINE
8
BLACK
6
CONTINUOUS
10
5.70182
20
-3.59648
11
5.68561
21
-3.5985
0
LINE
8
BLACK
6
CONTINUOUS
10
5.68561
20
-3.5985
11
5.66929
21
-3.59918
0
LINE
8
BLACK
6
CONTINUOUS
10
5.66929
20
-3.59918
11
4.88189
21
-3.59918
0
LINE
8
BLACK
6
CONTINUOUS
10
4.88189
20
-3.59918
11
4.86557
21
-3.5985
0
LINE
8
BLACK
6
CONTINUOUS
10
4.86557
20
-3.5985
11
4.84937
21
-3.59648
0
LINE
8
BLACK
6
CONTINUOUS
10
4.84937
20
-3.59648
11
4.83338
21
-3.59313
0
LINE
8
BLACK
6
CONTINUOUS
10
4.83338
20
-3.59313
11
4.81773
21
-3.58847
0
LINE
8
BLACK
6
CONTINUOUS
10
4.81773
20
-3.58847
11
4.80251
21
-3.58253
0
LINE
8
BLACK
6
CONTINUOUS
10
4.80251
20
-3.58253
11
4.78784
21
-3.57536
0
LINE
8
BLACK
6
CONTINUOUS
10
4.78784
20
-3.57536
11
4.77381
21
-3.567
0
LINE
8
BLACK
6
CONTINUOUS
10
4.77381
20
-3.567
11
4.76052
21
-3.55751
0
LINE
8
BLACK
6
CONTINUOUS
10
4.76052
20
-3.55751
11
4.74806
21
-3.54695
0
LINE
8
BLACK
6
CONTINUOUS
10
4.74806
20
-3.54695
11
4.73651
21
-3.53541
0
LINE
8
BLACK
6
CONTINUOUS
10
4.73651
20
-3.53541
11
4.72596
21
-3.52294
0
LINE
8
BLACK
6
CONTINUOUS
10
4.72596
20
-3.52294
11
4.71647
21
-3.50965
0
LINE
8
BLACK
6
CONTINUOUS
10
4.71647
20
-3.50965
11
4.70811
21
-3.49562
0
LINE
8
BLACK
6
CONTINUOUS
10
4.70811
20
-3.49562
11
4.70093
21
-3.48095
0
LINE
8
BLACK
6
CONTINUOUS
10
4.70093
20
-3.48095
11
4.695
21
-3.46574
0
LINE
8
BLACK
6
CONTINUOUS
10
4.695
20
-3.46574
11
4.69034
21
-3.45008
0
LINE
8
BLACK
6
CONTINUOUS
10
4.69034
20
-3.45008
11
4.68698
21
-3.4341
0
LINE
8
BLACK
6
CONTINUOUS
10
4.68698
20
-3.4341
11
4.68496
21
-3.41789
0
LINE
8
BLACK
6
CONTINUOUS
10
4.68496
20
-3.41789
11
4.68429
21
-3.40157
0
LINE
8
BLACK
6
CONTINUOUS
10
4.68429
20
-3.40157
11
4.68444
21
-3.40121
0
LINE
8
BLACK
6
CONTINUOUS
10
4.68444
20
-3.40121
11
4.68379
21
-3.38537
0
LINE
8
BLACK
6
CONTINUOUS
10
4.68379
20
-3.38537
11
4.68178
21
-3.36927
0
LINE
8
BLACK
6
CONTINUOUS
10
4.68178
20
-3.36927
11
4.67845
21
-3.35339
0
LINE
8
BLACK
6
CONTINUOUS
10
4.67845
20
-3.35339
11
4.67382
21
-3.33785
0
LINE
8
BLACK
6
CONTINUOUS
10
4.67382
20
-3.33785
11
4.66793
21
-3.32273
0
LINE
8
BLACK
6
CONTINUOUS
10
4.66793
20
-3.32273
11
4.6608
21
-3.30816
0
LINE
8
BLACK
6
CONTINUOUS
10
4.6608
20
-3.30816
11
4.6525
21
-3.29423
0
LINE
8
BLACK
6
CONTINUOUS
10
4.6525
20
-3.29423
11
4.64307
21
-3.28102
0
LINE
8
BLACK
6
CONTINUOUS
10
4.64307
20
-3.28102
11
4.63259
21
-3.26865
0
LINE
8
BLACK
6
CONTINUOUS
10
4.63259
20
-3.26865
11
4.62112
21
-3.25718
0
LINE
8
BLACK
6
CONTINUOUS
10
4.62112
20
-3.25718
11
4.60874
21
-3.24669
0
LINE
8
BLACK
6
CONTINUOUS
10
4.60874
20
-3.24669
11
4.59554
21
-3.23727
0
LINE
8
BLACK
6
CONTINUOUS
10
4.59554
20
-3.23727
11
4.5816
21
-3.22896
0
LINE
8
BLACK
6
CONTINUOUS
10
4.5816
20
-3.22896
11
4.56703
21
-3.22184
0
LINE
8
BLACK
6
CONTINUOUS
10
4.56703
20
-3.22184
11
4.55192
21
-3.21594
0
LINE
8
BLACK
6
CONTINUOUS
10
4.55192
20
-3.21594
11
4.53637
21
-3.21131
0
LINE
8
BLACK
6
CONTINUOUS
10
4.53637
20
-3.21131
11
4.52049
21
-3.20798
0
LINE
8
BLACK
6
CONTINUOUS
10
4.52049
20
-3.20798
11
4.5044
21
-3.20598
0
LINE
8
BLACK
6
CONTINUOUS
10
4.5044
20
-3.20598
11
4.48856
21
-3.20532
0
LINE
8
BLACK
6
CONTINUOUS
10
4.48856
20
-3.20532
11
4.48819
21
-3.20547
0
LINE
8
BLACK
6
CONTINUOUS
10
4.48819
20
-3.20547
11
3.89764
21
-3.20547
0
LINE
8
BLACK
6
CONTINUOUS
10
3.89764
20
-3.20547
11
3.89727
21
-3.20532
0
LINE
8
BLACK
6
CONTINUOUS
10
3.89727
20
-3.20532
11
3.88143
21
-3.20598
0
LINE
8
BLACK
6
CONTINUOUS
10
3.88143
20
-3.20598
11
3.86533
21
-3.20798
0
LINE
8
BLACK
6
CONTINUOUS
10
3.86533
20
-3.20798
11
3.84946
21
-3.21131
0
LINE
8
BLACK
6
CONTINUOUS
10
3.84946
20
-3.21131
11
3.83391
21
-3.21594
0
LINE
8
BLACK
6
CONTINUOUS
10
3.83391
20
-3.21594
11
3.8188
21
-3.22184
0
LINE
8
BLACK
6
CONTINUOUS
10
3.8188
20
-3.22184
11
3.80422
21
-3.22896
0
LINE
8
BLACK
6
CONTINUOUS
10
3.80422
20
-3.22896
11
3.79029
21
-3.23727
0
LINE
8
BLACK
6
CONTINUOUS
10
3.79029
20
-3.23727
11
3.77709
21
-3.24669
0
LINE
8
BLACK
6
CONTINUOUS
10
3.77709
20
-3.24669
11
3.76471
21
-3.25718
0
LINE
8
BLACK
6
CONTINUOUS
10
3.76471
20
-3.25718
11
3.75324
21
-3.26865
0
LINE
8
BLACK
6
CONTINUOUS
10
3.75324
20
-3.26865
11
3.74275
21
-3.28102
0
LINE
8
BLACK
6
CONTINUOUS
10
3.74275
20
-3.28102
11
3.73333
21
-3.29423
0
LINE
8
BLACK
6
CONTINUOUS
10
3.73333
20
-3.29423
11
3.72503
21
-3.30816
0
LINE
8
BLACK
6
CONTINUOUS
10
3.72503
20
-3.30816
11
3.7179
21
-3.32273
0
LINE
8
BLACK
6
CONTINUOUS
10
3.7179
20
-3.32273
11
3.712
21
-3.33785
0
LINE
8
BLACK
6
CONTINUOUS
10
3.712
20
-3.33785
11
3.70738
21
-3.35339
0
LINE
8
BLACK
6
CONTINUOUS
10
3.70738
20
-3.35339
11
3.70405
21
-3.36927
0
LINE
8
BLACK
6
CONTINUOUS
10
3.70405
20
-3.36927
11
3.70204
21
-3.38537
0
LINE
8
BLACK
6
CONTINUOUS
10
3.70204
20
-3.38537
11
3.70138
21
-3.40121
0
LINE
8
BLACK
6
CONTINUOUS
10
3.70138
20
-3.40121
11
3.70154
21
-3.40157
0
LINE
8
BLACK
6
CONTINUOUS
10
3.70154
20
-3.40157
11
3.70154
21
-5.76378
0
LINE
8
BLACK
6
CONTINUOUS
10
3.70154
20
-5.76378
11
3.70138
21
-5.76415
0
LINE
8
BLACK
6
CONTINUOUS
10
3.70138
20
-5.76415
11
3.70204
21
-5.77999
0
LINE
8
BLACK
6
CONTINUOUS
10
3.70204
20
-5.77999
11
3.70405
21
-5.79608
0
LINE
8
BLACK
6
CONTINUOUS
10
3.70405
20
-5.79608
11
3.70738
21
-5.81196
0
LINE
8
BLACK
6
CONTINUOUS
10
3.70738
20
-5.81196
11
3.712
21
-5.82751
0
LINE
8
BLACK
6
CONTINUOUS
10
3.712
20
-5.82751
11
3.7179
21
-5.84262
0
LINE
8
BLACK
6
CONTINUOUS
10
3.7179
20
-5.84262
11
3.72503
21
-5.85719
0
LINE
8
BLACK
6
CONTINUOUS
10
3.72503
20
-5.85719
11
3.73333
21
-5.87113
0
LINE
8
BLACK
6
CONTINUOUS
10
3.73333
20
-5.87113
11
3.74275
21
-5.88433
0
LINE
8
BLACK
6
CONTINUOUS
10
3.74275
20
-5.88433
11
3.75324
21
-5.89671
0
LINE
8
BLACK
6
CONTINUOUS
10
3.75324
20
-5.89671
11
3.76471
21
-5.90818
0
LINE
8
BLACK
6
CONTINUOUS
10
3.76471
20
-5.90818
11
3.77709
21
-5.91866
0
LINE
8
BLACK
6
CONTINUOUS
10
3.77709
20
-5.91866
11
3.79029
21
-5.92809
0
LINE
8
BLACK
6
CONTINUOUS
10
3.79029
20
-5.92809
11
3.80422
21
-5.93639
0
LINE
8
BLACK
6
CONTINUOUS
10
3.80422
20
-5.93639
11
3.8188
21
-5.94352
0
LINE
8
BLACK
6
CONTINUOUS
10
3.8188
20
-5.94352
11
3.83391
21
-5.94941
0
LINE
8
BLACK
6
CONTINUOUS
10
3.83391
20
-5.94941
11
3.84946
21
-5.95404
0
LINE
8
BLACK
6
CONTINUOUS
10
3.84946
20
-5.95404
11
3.86533
21
-5.95737
0
LINE
8
BLACK
6
CONTINUOUS
10
3.86533
20
-5.95737
11
3.88143
21
-5.95938
0
LINE
8
BLACK
6
CONTINUOUS
10
3.88143
20
-5.95938
11
3.89727
21
-5.96003
0
LINE
8
BLACK
6
CONTINUOUS
10
3.89727
20
-5.96003
11
3.89764
21
-5.95988
0
LINE
8
BLACK
6
CONTINUOUS
10
3.89764
20
-5.95988
11
4.48819
21
-5.95988
0
LINE
8
BLACK
6
CONTINUOUS
10
4.48819
20
-5.95988
11
4.48856
21
-5.96003
0
LINE
8
BLACK
6
CONTINUOUS
10
4.48856
20
-5.96003
11
4.5044
21
-5.95938
0
LINE
8
BLACK
6
CONTINUOUS
10
4.5044
20
-5.95938
11
4.52049
21
-5.95737
0
LINE
8
BLACK
6
CONTINUOUS
10
4.52049
20
-5.95737
11
4.53637
21
-5.95404
0
LINE
8
BLACK
6
CONTINUOUS
10
4.53637
20
-5.95404
11
4.55192
21
-5.94941
0
LINE
8
BLACK
6
CONTINUOUS
10
4.55192
20
-5.94941
11
4.56703
21
-5.94352
0
LINE
8
BLACK
6
CONTINUOUS
10
4.56703
20
-5.94352
11
4.5816
21
-5.93639
0
LINE
8
BLACK
6
CONTINUOUS
10
4.5816
20
-5.93639
11
4.59554
21
-5.92809
0
LINE
8
BLACK
6
CONTINUOUS
10
4.59554
20
-5.92809
11
4.60874
21
-5.91866
0
LINE
8
BLACK
6
CONTINUOUS
10
4.60874
20
-5.91866
11
4.62112
21
-5.90818
0
LINE
8
BLACK
6
CONTINUOUS
10
4.62112
20
-5.90818
11
4.63259
21
-5.89671
0
LINE
8
BLACK
6
CONTINUOUS
10
4.63259
20
-5.89671
11
4.64307
21
-5.88433
0
LINE
8
BLACK
6
CONTINUOUS
10
4.64307
20
-5.88433
11
4.6525
21
-5.87113
0
LINE
8
BLACK
6
CONTINUOUS
10
4.6525
20
-5.87113
11
4.6608
21
-5.85719
0
LINE
8
BLACK
6
CONTINUOUS
10
4.6608
20
-5.85719
11
4.66793
21
-5.84262
0
LINE
8
BLACK
6
CONTINUOUS
10
4.66793
20
-5.84262
11
4.67382
21
-5.82751
0
LINE
8
BLACK
6
CONTINUOUS
10
4.67382
20
-5.82751
11
4.67845
21
-5.81196
0
LINE
8
BLACK
6
CONTINUOUS
10
4.67845
20
-5.81196
11
4.68178
21
-5.79608
0
LINE
8
BLACK
6
CONTINUOUS
10
4.68178
20
-5.79608
11
4.68379
21
-5.77999
0
LINE
8
BLACK
6
CONTINUOUS
10
4.68379
20
-5.77999
11
4.68444
21
-5.76415
0
LINE
8
BLACK
6
CONTINUOUS
10
4.68444
20
-5.76415
11
4.68429
21
-5.76378
0
LINE
8
BLACK
6
CONTINUOUS
10
4.68429
20
-5.76378
11
4.68496
21
-5.74746
0
LINE
8
BLACK
6
CONTINUOUS
10
4.68496
20
-5.74746
11
4.68698
21
-5.73126
0
LINE
8
BLACK
6
CONTINUOUS
10
4.68698
20
-5.73126
11
4.69034
21
-5.71527
0
LINE
8
BLACK
6
CONTINUOUS
10
4.69034
20
-5.71527
11
4.695
21
-5.69962
0
LINE
8
BLACK
6
CONTINUOUS
10
4.695
20
-5.69962
11
4.70093
21
-5.6844
0
LINE
8
BLACK
6
CONTINUOUS
10
4.70093
20
-5.6844
11
4.70811
21
-5.66973
0
LINE
8
BLACK
6
CONTINUOUS
10
4.70811
20
-5.66973
11
4.71647
21
-5.6557
0
LINE
8
BLACK
6
CONTINUOUS
10
4.71647
20
-5.6557
11
4.72596
21
-5.64241
0
LINE
8
BLACK
6
CONTINUOUS
10
4.72596
20
-5.64241
11
4.73651
21
-5.62995
0
LINE
8
BLACK
6
CONTINUOUS
10
4.73651
20
-5.62995
11
4.74806
21
-5.6184
0
LINE
8
BLACK
6
CONTINUOUS
10
4.74806
20
-5.6184
11
4.76052
21
-5.60785
0
LINE
8
BLACK
6
CONTINUOUS
10
4.76052
20
-5.60785
11
4.77381
21
-5.59836
0
LINE
8
BLACK
6
CONTINUOUS
10
4.77381
20
-5.59836
11
4.78784
21
-5.59
0
LINE
8
BLACK
6
CONTINUOUS
10
4.78784
20
-5.59
11
4.80251
21
-5.58282
0
LINE
8
BLACK
6
CONTINUOUS
10
4.80251
20
-5.58282
11
4.81773
21
-5.57689
0
LINE
8
BLACK
6
CONTINUOUS
10
4.81773
20
-5.57689
11
4.83338
21
-5.57223
0
LINE
8
BLACK
6
CONTINUOUS
10
4.83338
20
-5.57223
11
4.84937
21
-5.56887
0
LINE
8
BLACK
6
CONTINUOUS
10
4.84937
20
-5.56887
11
4.86557
21
-5.56685
0
LINE
8
BLACK
6
CONTINUOUS
10
4.86557
20
-5.56685
11
4.88189
21
-5.56618
0
LINE
8
BLACK
6
CONTINUOUS
10
4.88189
20
-5.56618
11
5.66929
21
-5.56618
0
LINE
8
BLACK
6
CONTINUOUS
10
5.66929
20
-5.56618
11
5.68561
21
-5.56685
0
LINE
8
BLACK
6
CONTINUOUS
10
5.68561
20
-5.56685
11
5.70182
21
-5.56887
0
LINE
8
BLACK
6
CONTINUOUS
10
5.70182
20
-5.56887
11
5.7178
21
-5.57223
0
LINE
8
BLACK
6
CONTINUOUS
10
5.7178
20
-5.57223
11
5.73345
21
-5.57689
0
LINE
8
BLACK
6
CONTINUOUS
10
5.73345
20
-5.57689
11
5.74867
21
-5.58282
0
LINE
8
BLACK
6
CONTINUOUS
10
5.74867
20
-5.58282
11
5.76334
21
-5.59
0
LINE
8
BLACK
6
CONTINUOUS
10
5.76334
20
-5.59
11
5.77737
21
-5.59836
0
LINE
8
BLACK
6
CONTINUOUS
10
5.77737
20
-5.59836
11
5.79066
21
-5.60785
0
LINE
8
BLACK
6
CONTINUOUS
10
5.79066
20
-5.60785
11
5.80312
21
-5.6184
0
LINE
8
BLACK
6
CONTINUOUS
10
5.80312
20
-5.6184
11
5.81467
21
-5.62995
0
LINE
8
BLACK
6
CONTINUOUS
10
5.81467
20
-5.62995
11
5.82523
21
-5.64241
0
LINE
8
BLACK
6
CONTINUOUS
10
5.82523
20
-5.64241
11
5.83472
21
-5.6557
0
LINE
8
BLACK
6
CONTINUOUS
10
5.83472
20
-5.6557
11
5.84308
21
-5.66973
0
LINE
8
BLACK
6
CONTINUOUS
10
5.84308
20
-5.66973
11
5.85025
21
-5.6844
0
LINE
8
BLACK
6
CONTINUOUS
10
5.85025
20
-5.6844
11
5.85619
21
-5.69962
0
LINE
8
BLACK
6
CONTINUOUS
10
5.85619
20
-5.69962
11
5.86085
21
-5.71527
0
LINE
8
BLACK
6
CONTINUOUS
10
5.86085
20
-5.71527
11
5.8642
21
-5.73126
0
LINE
8
BLACK
6
CONTINUOUS
10
5.8642
20
-5.73126
11
5.86622
21
-5.74746
0
LINE
8
BLACK
6
CONTINUOUS
10
5.86622
20
-5.74746
11
5.86689
21
-5.76378
0
LINE
8
BLACK
6
CONTINUOUS
10
5.86689
20
-5.76378
11
5.86674
21
-5.76415
0
LINE
8
BLACK
6
CONTINUOUS
10
5.86674
20
-5.76415
11
5.86739
21
-5.77999
0
LINE
8
BLACK
6
CONTINUOUS
10
5.86739
20
-5.77999
11
5.8694
21
-5.79608
0
LINE
8
BLACK
6
CONTINUOUS
10
5.8694
20
-5.79608
11
5.87273
21
-5.81196
0
LINE
8
BLACK
6
CONTINUOUS
10
5.87273
20
-5.81196
11
5.87736
21
-5.82751
0
LINE
8
BLACK
6
CONTINUOUS
10
5.87736
20
-5.82751
11
5.88326
21
-5.84262
0
LINE
8
BLACK
6
CONTINUOUS
10
5.88326
20
-5.84262
11
5.89038
21
-5.85719
0
LINE
8
BLACK
6
CONTINUOUS
10
5.89038
20
-5.85719
11
5.89868
21
-5.87113
0
LINE
8
BLACK
6
CONTINUOUS
10
5.89868
20
-5.87113
11
5.90811
21
-5.88433
0
LINE
8
BLACK
6
CONTINUOUS
10
5.90811
20
-5.88433
11
5.91859
21
-5.89671
0
LINE
8
BLACK
6
CONTINUOUS
10
5.91859
20
-5.89671
11
5.93006
21
-5.90818
0
LINE
8
BLACK
6
CONTINUOUS
10
5.93006
20
-5.90818
11
5.94244
21
-5.91866
0
LINE
8
BLACK
6
CONTINUOUS
10
5.94244
20
-5.91866
11
5.95564
21
-5.92809
0
LINE
8
BLACK
6
CONTINUOUS
10
5.95564
20
-5.92809
11
5.96958
21
-5.93639
0
LINE
8
BLACK
6
CONTINUOUS
10
5.96958
20
-5.93639
11
5.98415
21
-5.94352
0
LINE
8
BLACK
6
CONTINUOUS
10
5.98415
20
-5.94352
11
5.99926
21
-5.94941
0
LINE
8
BLACK
6
CONTINUOUS
10
5.99926
20
-5.94941
11
6.01481
21
-5.95404
0
LINE
8
BLACK
6
CONTINUOUS
10
6.01481
20
-5.95404
11
6.03069
21
-5.95737
0
LINE
8
BLACK
6
CONTINUOUS
10
6.03069
20
-5.95737
11
6.04678
21
-5.95938
0
LINE
8
BLACK
6
CONTINUOUS
10
6.04678
20
-5.95938
11
6.06262
21
-5.96003
0
LINE
8
BLACK
6
CONTINUOUS
10
6.06262
20
-5.96003
11
6.06299
21
-5.95988
0
LINE
8
BLACK
6
CONTINUOUS
10
6.06299
20
-5.95988
11
6.65354
21
-5.95988
0
LINE
8
BLACK
6
CONTINUOUS
10
6.65354
20
-5.95988
11
6.65391
21
-5.96003
0
LINE
8
BLACK
6
CONTINUOUS
10
6.65391
20
-5.96003
11
6.66975
21
-5.95938
0
LINE
8
BLACK
6
CONTINUOUS
10
6.66975
20
-5.95938
11
6.68585
21
-5.95737
0
LINE
8
BLACK
6
CONTINUOUS
10
6.68585
20
-5.95737
11
6.70172
21
-5.95404
0
LINE
8
BLACK
6
CONTINUOUS
10
6.70172
20
-5.95404
11
6.71727
21
-5.94941
0
LINE
8
BLACK
6
CONTINUOUS
10
6.71727
20
-5.94941
11
6.73238
21
-5.94352
0
LINE
8
BLACK
6
CONTINUOUS
10
6.73238
20
-5.94352
11
6.74696
21
-5.93639
0
LINE
8
BLACK
6
CONTINUOUS
10
6.74696
20
-5.93639
11
6.76089
21
-5.92809
0
LINE
8
BLACK
6
CONTINUOUS
10
6.76089
20
-5.92809
11
6.77409
21
-5.91866
0
LINE
8
BLACK
6
CONTINUOUS
10
6.77409
20
-5.91866
11
6.78647
21
-5.90818
0
LINE
8
BLACK
6
CONTINUOUS
10
6.78647
20
-5.90818
11
6.79794
21
-5.89671
0
LINE
8
BLACK
6
CONTINUOUS
10
6.79794
20
-5.89671
11
6.80843
21
-5.88433
0
LINE
8
BLACK
6
CONTINUOUS
10
6.80843
20
-5.88433
11
6.81785
21
-5.87113
0
LINE
8
BLACK
6
CONTINUOUS
10
6.81785
20
-5.87113
11
6.82616
21
-5.85719
0
LINE
8
BLACK
6
CONTINUOUS
10
6.82616
20
-5.85719
11
6.83328
21
-5.84262
0
LINE
8
BLACK
6
CONTINUOUS
10
6.83328
20
-5.84262
11
6.83918
21
-5.82751
0
LINE
8
BLACK
6
CONTINUOUS
10
6.83918
20
-5.82751
11
6.84381
21
-5.81196
0
LINE
8
BLACK
6
CONTINUOUS
10
6.84381
20
-5.81196
11
6.84713
21
-5.79608
0
LINE
8
BLACK
6
CONTINUOUS
10
6.84713
20
-5.79608
11
6.84914
21
-5.77999
0
LINE
8
BLACK
6
CONTINUOUS
10
6.84914
20
-5.77999
11
6.8498
21
-5.76415
0
LINE
8
BLACK
6
CONTINUOUS
10
6.8498
20
-5.76415
11
6.84964
21
-5.76378
0
LINE
8
BLACK
6
CONTINUOUS
10
6.84964
20
-5.76378
11
6.84964
21
-3.40157
0
LINE
8
BLACK
6
CONTINUOUS
10
6.84964
20
-3.40157
11
6.8498
21
-3.40121
0
LINE
8
BLACK
6
CONTINUOUS
10
6.8498
20
-3.40121
11
6.84914
21
-3.38537
0
LINE
8
BLACK
6
CONTINUOUS
10
6.84914
20
-3.38537
11
6.84713
21
-3.36927
0
LINE
8
BLACK
6
CONTINUOUS
10
6.84713
20
-3.36927
11
6.84381
21
-3.35339
0
LINE
8
BLACK
6
CONTINUOUS
10
6.84381
20
-3.35339
11
6.83918
21
-3.33785
0
LINE
8
BLACK
6
CONTINUOUS
10
6.83918
20
-3.33785
11
6.83328
21
-3.32273
0
LINE
8
BLACK
6
CONTINUOUS
10
6.83328
20
-3.32273
11
6.82616
21
-3.30816
0
LINE
8
BLACK
6
CONTINUOUS
10
6.82616
20
-3.30816
11
6.81785
21
-3.29423
0
LINE
8
BLACK
6
CONTINUOUS
10
6.81785
20
-3.29423
11
6.80843
21
-3.28102
0
LINE
8
BLACK
6
CONTINUOUS
10
6.80843
20
-3.28102
11
6.79794
21
-3.26865
0
LINE
8
BLACK
6
CONTINUOUS
10
6.79794
20
-3.26865
11
6.78647
21
-3.25718
0
LINE
8
BLACK
6
CONTINUOUS
10
6.78647
20
-3.25718
11
6.77409
21
-3.24669
0
LINE
8
BLACK
6
CONTINUOUS
10
6.77409
20
-3.24669
11
6.76089
21
-3.23727
0
LINE
8
BLACK
6
CONTINUOUS
10
6.76089
20
-3.23727
11
6.74696
21
-3.22896
0
LINE
8
BLACK
6
CONTINUOUS
10
6.74696
20
-3.22896
11
6.73238
21
-3.22184
0
LINE
8
BLACK
6
CONTINUOUS
10
6.73238
20
-3.22184
11
6.71727
21
-3.21594
0
LINE
8
BLACK
6
CONTINUOUS
10
6.71727
20
-3.21594
11
6.70172
21
-3.21131
0
LINE
8
BLACK
6
CONTINUOUS
10
6.70172
20
-3.21131
11
6.68585
21
-3.20798
0
LINE
8
BLACK
6
CONTINUOUS
10
6.68585
20
-3.20798
11
6.66975
21
-3.20598
0
LINE
8
BLACK
6
CONTINUOUS
10
6.66975
20
-3.20598
11
6.65391
21
-3.20532
0
LINE
8
BLACK
6
CONTINUOUS
10
6.65391
20
-3.20532
11
6.65354
21
-3.20547
0
LINE
8
BLACK
6
CONTINUOUS
10
6.65354
20
-3.20547
11
6.06299
21
-3.20547
0
LINE
8
BLACK
6
CONTINUOUS
10
6.06299
20
-3.20547
11
6.06262
21
-3.20532
  0
ENDSEC
  0
EOF
